<svg id="Layer_1" enable-background="new 0 0 510 510" height="512" viewBox="0 0 510 510" width="512" xmlns="http://www.w3.org/2000/svg"><g><g><g><path d="m255 0c-98.131 0-158.574 55.347-158.741 55.441-3.787 17.481-10.374 42.85-10.374 61.465 0 140.833 118.763 254.972 259.596 254.972 60.017 0 115.159-27.944 158.719-62.639.178-1.087 5.8-23.477 5.8-54.239 0-140.833-114.167-255-255-255z" fill="#ecbe6b"/></g><g><path d="m345.459 364.679c-140.833 0-255-114.167-255-255 0-18.615 2.013-36.757 5.8-54.239-.006.005-.011.01-.017.014-58.645 46.721-96.242 118.738-96.242 199.546 0 74.593 32.028 141.706 83.083 188.336l39.408 29.575c38.616 23.533 83.98 37.089 132.509 37.089 48.302 0 93.709-13.504 132.442-37.08l39.476-29.597c38.19-34.855 65.838-81.264 77.281-134.084-43.559 34.695-98.724 55.44-158.74 55.44z" fill="#e7a561"/></g></g><g><path d="m426.912 443.316v-376.647c-10.822-9.885-22.498-18.849-34.907-26.769v10.974c5.522 2.624 9.349 8.237 9.349 14.757 0 9.029-7.32 16.349-16.349 16.349s-16.349-7.32-16.349-16.349c0-6.521 3.827-12.133 9.349-14.757v-13.936h-38.94v13.936c5.522 2.625 9.349 8.237 9.349 14.757 0 9.029-7.32 16.349-16.349 16.349s-16.349-7.32-16.349-16.349c0-6.521 3.827-12.133 9.349-14.757v-13.936h-38.941v13.936c5.522 2.624 9.349 8.237 9.349 14.757 0 9.029-7.32 16.349-16.349 16.349s-16.349-7.32-16.349-16.349c0-6.52 3.827-12.133 9.348-14.757v-13.936h-38.94v13.936c5.522 2.625 9.349 8.237 9.349 14.757 0 9.029-7.32 16.349-16.349 16.349-3.216 0-6.205-.942-8.734-2.545v393.473h169.985c14.105-8.585 27.326-18.501 39.478-29.592z" fill="#f9f6f6"/></g><g><path d="m113.302 50.874v-8.277c-11.081 7.416-16.991 12.815-17.043 12.844-.006.005-.011.01-.017.014-4.518 3.599-8.894 7.366-13.154 11.257v376.619c12.121 11.071 25.313 20.989 39.405 29.577h96.1v-392.804c-5.204-2.735-8.758-8.185-8.758-14.473 0-6.283 3.558-11.715 8.758-14.451v-14.242h-38.349v13.936c5.522 2.625 9.348 8.237 9.348 14.757 0 9.029-7.32 16.349-16.349 16.349s-16.349-7.32-16.349-16.349c0-6.521 3.827-12.133 9.349-14.757v-13.936h-38.941v13.936c5.522 2.624 9.349 8.237 9.349 14.757 0 9.029-7.32 16.349-16.349 16.349s-16.349-7.32-16.349-16.349c0-6.52 3.827-12.133 9.349-14.757z" fill="#efe7e4"/></g><g><path d="m426.912 108.153v-71.215h-34.907v13.936c5.522 2.624 9.349 8.237 9.349 14.757 0 9.029-7.32 16.349-16.349 16.349s-16.349-7.32-16.349-16.349c0-6.521 3.827-12.133 9.349-14.757v-13.936h-38.94v13.936c5.522 2.625 9.349 8.237 9.349 14.757 0 9.029-7.32 16.349-16.349 16.349s-16.349-7.32-16.349-16.349c0-6.521 3.827-12.133 9.349-14.757v-13.936h-38.941v13.936c5.522 2.624 9.349 8.237 9.349 14.757 0 9.029-7.32 16.349-16.349 16.349s-16.349-7.32-16.349-16.349c0-6.52 3.827-12.133 9.348-14.757v-13.936h-38.94v13.936c5.522 2.625 9.349 8.237 9.349 14.757 0 9.029-7.32 16.349-16.349 16.349-3.216 0-6.205-.942-8.734-2.545v28.719h209.463z" fill="#f9f6f6"/></g><g><path d="m218.592 108.153v-28.05c-5.204-2.735-8.758-8.185-8.758-14.473 0-6.283 3.558-11.715 8.758-14.451v-14.241h-38.349v13.936c5.522 2.625 9.348 8.237 9.348 14.757 0 9.029-7.32 16.349-16.349 16.349s-16.349-7.32-16.349-16.349c0-6.521 3.827-12.133 9.349-14.757v-13.936h-38.941v13.936c5.522 2.624 9.349 8.237 9.349 14.757 0 9.029-7.32 16.349-16.349 16.349s-16.349-7.32-16.349-16.349c0-6.521 3.827-12.133 9.349-14.757v-13.936h-30.213v71.215z" fill="#efe7e4"/></g><g><g><g><path d="m215.692 115.201h211.22v6h-211.22z" fill="#efe7e4"/></g></g><g><g><path d="m215.692 150.871h211.22v6h-211.22z" fill="#efe7e4"/></g></g><g><g><path d="m215.692 186.54h211.22v6h-211.22z" fill="#efe7e4"/></g></g><g><g><path d="m215.692 222.21h211.22v6h-211.22z" fill="#efe7e4"/></g></g><g><g><path d="m215.692 257.88h211.22v6h-211.22z" fill="#efe7e4"/></g></g><g><g><path d="m215.692 293.55h211.22v6h-211.22z" fill="#efe7e4"/></g></g><g><g><path d="m215.692 329.219h211.22v6h-211.22z" fill="#efe7e4"/></g></g><g><g><path d="m215.692 364.889h211.22v6h-211.22z" fill="#efe7e4"/></g></g><g><g><path d="m215.692 400.559h211.22v6h-211.22z" fill="#efe7e4"/></g></g><g><g><path d="m215.692 436.228h211.22v6h-211.22z" fill="#efe7e4"/></g></g></g><g><g><g><path d="m83.161 115.201h135.432v6h-135.432z" fill="#e2dfe2"/></g></g><g><g><path d="m83.161 150.871h135.432v6h-135.432z" fill="#e2dfe2"/></g></g><g><g><path d="m83.161 186.54h135.432v6h-135.432z" fill="#e2dfe2"/></g></g><g><g><path d="m83.161 222.21h135.432v6h-135.432z" fill="#e2dfe2"/></g></g><g><g><path d="m83.161 257.88h135.432v6h-135.432z" fill="#e2dfe2"/></g></g><g><g><path d="m83.161 293.55h135.432v6h-135.432z" fill="#e2dfe2"/></g></g><g><g><path d="m83.161 329.219h135.432v6h-135.432z" fill="#e2dfe2"/></g></g><g><g><path d="m83.161 364.889h135.432v6h-135.432z" fill="#e2dfe2"/></g></g><g><g><path d="m83.161 400.559h135.432v6h-135.432z" fill="#e2dfe2"/></g></g><g><g><path d="m83.161 436.228h135.432v6h-135.432z" fill="#e2dfe2"/></g></g></g></g></svg>